<svg xmlns="http://www.w3.org/2000/svg" width="50" height="50" viewBox="0 0 50 50" fill="none" style="cursor: pointer; margin-left: 35px;"><circle cx="25" cy="25" r="25" fill="#A7C204" fill-opacity="0.2"></circle><mask id="mask0_89_22183" maskUnits="userSpaceOnUse" x="0" y="0" width="50" height="50"><circle cx="25" cy="25" r="25" fill="#D9D9D9"></circle></mask><g mask="url(#mask0_89_22183)"><path d="M13.2658 13.0872L13.596 12.5094L13.6125 12.2122L14.2233 11.9481L14.8176 11.9811L15.0983 12.2948L15.0323 13.4834L15.2964 14.0942L15.8742 14.4244L15.8412 15.0187L15.5275 15.2994L15.8082 15.6131L15.7752 16.2074L15.7422 16.8017L15.412 17.3795L14.7846 17.9408L14.1903 17.9078L13.8601 18.4856L12.9687 18.4361L12.8861 19.9219L12.7871 21.7049L12.4899 21.6884L12.4734 21.9855L12.1432 22.5633L11.5159 23.1246L11.2022 23.4053L11.1857 23.7025L10.8885 23.686L10.806 25.1718L10.2117 25.1387L9.98056 29.299L10.2612 29.6127L10.2282 30.207L10.4593 31.4121L14.3224 31.6267L14.6361 31.3461L14.9498 31.0654L14.9828 30.4711L15.2964 30.1905L15.6266 29.6126L15.9403 29.332L15.9898 28.4405L15.6927 28.424L15.7587 27.2354L15.1809 26.9052L15.445 22.1506L16.0558 21.8865L16.1219 20.6978L16.419 20.7143L16.7492 20.1365L17.0464 20.153L17.0794 19.5587L17.3931 19.2781L17.7067 18.9974L18.0039 19.0139L18.0534 18.1224L17.7728 17.8088L17.4756 17.7922L17.5086 17.1979L17.228 16.8843L17.3435 14.8041L17.6407 14.8206L17.7067 13.632L19.1925 13.7145L19.5557 12.5424L19.5887 11.9481L20.1996 11.6839L21.1241 11.1391L23.7985 11.2877L24.6735 11.6344L24.9376 12.2452L25.2183 12.5589L25.4824 13.1697L25.7631 13.4834L26.3739 13.2192L26.9847 12.9551L27.3314 12.0801L27.9422 11.816L28.2559 11.5353L28.5696 11.2547L29.1639 11.2877L29.4776 11.007L31.5577 11.1226L31.8384 11.4363L32.4327 11.4693L32.6968 12.0801L32.994 12.0966L33.5553 12.724L33.8194 13.3348L34.1001 13.6485L33.9845 15.7286L34.843 16.3724L35.1236 16.6861L35.4043 16.9998L35.9821 17.33L35.9656 17.6271L36.2463 17.9408L36.5269 18.2545L36.8076 18.5681L37.0882 18.8818L37.633 19.8063L37.9137 20.12L38.1943 20.4336L38.4585 21.0445L38.9867 22.2661L39.2179 23.4713L39.2014 23.7684L39.4985 23.7849L39.449 24.6764L39.9938 25.6009L39.9773 25.8981L39.9113 27.0867L39.8452 28.2754L39.2344 28.5395L39.2179 28.8367L39.1684 29.7282L38.8712 29.7116L38.8547 30.0088L38.8382 30.306L39.3995 30.9333L39.383 31.2305L39.6801 31.247L39.6471 31.8413L39.9278 32.155L40.1919 32.7658L40.1754 33.063L40.4726 33.0795L40.4396 33.6738L40.7202 33.9875L40.9678 34.8954L41.232 35.5063L41.166 36.6949L41.4631 36.7114L41.4466 37.0086L41.6612 38.5109L41.9419 38.8246L41.6447 44.1735L41.5787 45.3621L41.265 45.6428L40.9018 46.8149L40.5552 47.6899L40.2415 47.9705L39.9113 48.5483L39.5976 48.829L39.5811 49.1262L38.9373 49.9846L37.9963 50.8266L32.9445 50.5459L32.0531 50.4964L32.02 51.0907L30.2371 50.9917L30.2206 51.2888L20.7114 50.7606L20.7444 50.1663L20.1501 50.1332L20.1171 50.7276L16.254 50.513L16.287 49.9186L16.32 49.3243L15.1314 49.2583L15.1644 48.664L14.8838 48.3503L14.6031 48.0366L14.6361 47.4423L14.339 47.4258L14.3555 47.1286L14.0913 46.5178L13.7942 46.5013L13.8272 45.907L13.5465 45.5933L13.563 45.2961L13.2659 45.2796L13.3154 44.3882L13.0348 44.0745L12.8697 41.6807L12.589 41.367L12.8036 37.5039L13.1173 37.2233L13.5135 35.4568L13.2493 34.846L12.0607 34.78L12.0772 34.4828L10.5914 34.4003L10.6079 34.1031L10.3108 34.0866L9.73294 33.7564L9.45229 33.4427L8.85797 33.4097L8.89098 32.8154L8.61033 32.5017L8.31317 32.4852L8.3792 31.2966L8.09855 30.9829L8.18109 29.4971L8.21411 28.9028L7.61979 28.8698L7.86741 24.4124L7.58676 24.0987L7.70231 22.0186L7.99947 22.0351L8.08202 20.5493L8.72586 19.6908L8.77539 18.7993L9.10556 18.2215L9.13858 17.6272L9.74941 17.363L9.78243 16.7687L10.4098 16.2074L10.7234 15.9268L11.3508 15.3654L11.9781 14.8041L12.3083 14.2263L12.622 13.9457L13.2658 13.0872Z" fill="#A7C204"></path><rect width="0.689089" height="1.66179" transform="matrix(0.965072 0.228356 -0.0166848 0.998487 14.2673 36.6948)" fill="#F1DB82"></rect><rect width="0.641106" height="0.48975" transform="matrix(0.96479 0.217279 -0.0174273 0.998281 13.6208 38.4448)" fill="#F1DB82"></rect><rect width="0.641106" height="0.48975" transform="matrix(0.96479 0.217279 -0.0174273 0.998281 13.9839 42.6382)" fill="#F1DB82"></rect><rect width="0.641106" height="0.48975" transform="matrix(0.96479 0.217279 -0.0174273 0.998281 13.9512 43.2324)" fill="#F1DB82"></rect><rect width="0.641106" height="0.48975" transform="matrix(0.96479 0.217279 -0.0174273 0.998281 13.9182 43.8267)" fill="#F1DB82"></rect><rect width="0.641106" height="0.48975" transform="matrix(0.96479 0.217279 -0.0174273 0.998281 14.4792 44.4541)" fill="#F1DB82"></rect><rect width="0.641106" height="0.48975" transform="matrix(0.96479 0.217279 -0.0174273 0.998281 14.4463 45.0483)" fill="#F1DB82"></rect><rect width="0.641106" height="0.48975" transform="matrix(0.96479 0.217279 -0.0174273 0.998281 15.0076 45.6758)" fill="#F1DB82"></rect><rect width="0.641106" height="0.48975" transform="matrix(0.96479 0.217279 -0.0174273 0.998281 14.9746 46.27)" fill="#F1DB82"></rect><rect width="0.641106" height="0.48975" transform="matrix(0.96479 0.217279 -0.0174273 0.998281 15.5359 46.8975)" fill="#F1DB82"></rect><rect width="0.641106" height="0.48975" transform="matrix(0.96479 0.217279 -0.0174273 0.998281 16.0972 47.5244)" fill="#F1DB82"></rect><rect width="0.641106" height="0.48975" transform="matrix(0.96479 0.217279 -0.0174273 0.998281 16.6587 48.1519)" fill="#F1DB82"></rect><rect width="0.641106" height="0.48975" transform="matrix(0.96479 0.217279 -0.0174273 0.998281 17.2529 48.1851)" fill="#F1DB82"></rect><rect width="0.641106" height="0.48975" transform="matrix(0.96479 0.217279 -0.0174273 0.998281 17.8472 48.2183)" fill="#F1DB82"></rect><rect width="0.641106" height="0.48975" transform="matrix(0.96479 0.217279 -0.0174273 0.998281 18.4084 48.8452)" fill="#F1DB82"></rect><rect width="0.641106" height="0.48975" transform="matrix(0.96479 0.217279 -0.0174273 0.998281 19.0027 48.8784)" fill="#F1DB82"></rect><rect width="0.641106" height="0.48975" transform="matrix(0.96479 0.217279 -0.0174273 0.998281 19.5969 48.9111)" fill="#F1DB82"></rect><rect width="0.641106" height="0.48975" transform="matrix(0.96479 0.217279 -0.0174273 0.998281 20.1917 48.9443)" fill="#F1DB82"></rect><rect width="0.641106" height="0.48975" transform="matrix(0.96479 0.217279 -0.0174273 0.998281 20.7527 49.5718)" fill="#F1DB82"></rect><rect width="0.641106" height="0.48975" transform="matrix(0.96479 0.217279 -0.0174273 0.998281 21.3472 49.6045)" fill="#F1DB82"></rect><rect width="0.641106" height="0.48975" transform="matrix(0.96479 0.217279 -0.0174273 0.998281 30.2949 49.5054)" fill="#F1DB82"></rect><rect width="0.641106" height="0.48975" transform="matrix(0.96479 0.217279 -0.0174273 0.998281 30.8892 49.5386)" fill="#F1DB82"></rect><rect width="0.641106" height="0.48975" transform="matrix(0.96479 0.217279 -0.0174273 0.998281 31.4834 49.5718)" fill="#F1DB82"></rect><rect width="0.641106" height="0.48975" transform="matrix(0.96479 0.217279 -0.0174273 0.998281 32.1108 49.0103)" fill="#F1DB82"></rect><rect width="0.641106" height="0.48975" transform="matrix(0.96479 0.217279 -0.0174273 0.998281 32.738 48.4492)" fill="#F1DB82"></rect><rect width="0.641106" height="0.48975" transform="matrix(0.96479 0.217279 -0.0174273 0.998281 33.3655 47.8877)" fill="#F1DB82"></rect><rect width="0.641106" height="0.48975" transform="matrix(0.96479 0.217279 -0.0174273 0.998281 33.3984 47.2935)" fill="#F1DB82"></rect><rect width="0.641106" height="0.48975" transform="matrix(0.96479 0.217279 -0.0174273 0.998281 33.4316 46.6992)" fill="#F1DB82"></rect><rect width="0.641106" height="0.48975" transform="matrix(0.96479 0.217279 -0.0174273 0.998281 33.1016 41.9116)" fill="#F1DB82"></rect><rect width="0.641106" height="0.48975" transform="matrix(0.96479 0.217279 -0.0174273 0.998281 32.6392 39.501)" fill="#F1DB82"></rect><rect width="0.641106" height="0.48975" transform="matrix(0.96479 0.217279 -0.0174273 0.998281 32.6721 38.9072)" fill="#F1DB82"></rect><rect width="0.641106" height="0.48975" transform="matrix(0.96479 0.217279 -0.0174273 0.998281 32.1108 38.2798)" fill="#F1DB82"></rect><rect width="0.641106" height="0.48975" transform="matrix(0.96479 0.217279 -0.0174273 0.998281 32.1438 37.6851)" fill="#F1DB82"></rect><rect width="0.641106" height="0.48975" transform="matrix(0.96479 0.217279 -0.0174273 0.998281 31.5825 37.0576)" fill="#F1DB82"></rect><rect width="0.641106" height="0.48975" transform="matrix(0.96479 0.217279 -0.0174273 0.998281 31.0212 36.4307)" fill="#F1DB82"></rect><rect width="0.641106" height="0.48975" transform="matrix(0.96479 0.217279 -0.0174273 0.998281 31.0544 35.8364)" fill="#F1DB82"></rect><rect width="0.641106" height="0.48975" transform="matrix(0.96479 0.217279 -0.0174273 0.998281 30.4929 35.209)" fill="#F1DB82"></rect><rect width="0.641106" height="0.48975" transform="matrix(0.96479 0.217279 -0.0174273 0.998281 29.9316 34.5815)" fill="#F1DB82"></rect><rect width="0.641106" height="0.48975" transform="matrix(0.96479 0.217279 -0.0174273 0.998281 29.3704 33.9541)" fill="#F1DB82"></rect><rect width="0.641106" height="0.48975" transform="matrix(0.96479 0.217279 -0.0174273 0.998281 28.8091 33.3267)" fill="#F1DB82"></rect><rect width="0.641106" height="0.48975" transform="matrix(0.96479 0.217279 -0.0174273 0.998281 28.2146 33.2939)" fill="#F1DB82"></rect><rect width="0.641106" height="0.48975" transform="matrix(0.96479 0.217279 -0.0174273 0.998281 27.6536 32.6665)" fill="#F1DB82"></rect><rect width="0.641106" height="0.48975" transform="matrix(0.96479 0.217279 -0.0174273 0.998281 27.0923 32.0391)" fill="#F1DB82"></rect><rect width="0.641106" height="0.48975" transform="matrix(0.96479 0.217279 -0.0174273 0.998281 26.4978 32.0063)" fill="#F1DB82"></rect><rect width="0.641106" height="0.48975" transform="matrix(0.96479 0.217279 -0.0174273 0.998281 20.5547 31.6763)" fill="#F1DB82"></rect><rect width="0.641106" height="0.48975" transform="matrix(0.96479 0.217279 -0.0174273 0.998281 19.9604 31.6431)" fill="#F1DB82"></rect><rect width="0.641106" height="0.48975" transform="matrix(0.96479 0.217279 -0.0174273 0.998281 19.333 32.2041)" fill="#F1DB82"></rect><rect width="0.641106" height="0.48975" transform="matrix(0.96479 0.217279 -0.0174273 0.998281 18.7388 32.1714)" fill="#F1DB82"></rect><rect width="0.641106" height="0.48975" transform="matrix(0.96479 0.217279 -0.0174273 0.998281 18.1113 32.7324)" fill="#F1DB82"></rect><rect width="0.641106" height="0.48975" transform="matrix(0.96479 0.217279 -0.0174273 0.998281 17.4841 33.2939)" fill="#F1DB82"></rect><rect width="0.641106" height="0.48975" transform="matrix(0.96479 0.217279 -0.0174273 0.998281 16.8567 33.855)" fill="#F1DB82"></rect><rect width="0.641106" height="0.48975" transform="matrix(0.96479 0.217279 -0.0174273 0.998281 16.2292 34.4165)" fill="#F1DB82"></rect><rect width="0.641106" height="0.48975" transform="matrix(0.96479 0.217279 -0.0174273 0.998281 15.6021 34.9775)" fill="#F1DB82"></rect><rect width="0.641106" height="0.48975" transform="matrix(0.96479 0.217279 -0.0174273 0.998281 14.9746 35.5391)" fill="#F1DB82"></rect><rect width="0.641106" height="0.48975" transform="matrix(0.96479 0.217279 -0.0174273 0.998281 14.3474 36.1006)" fill="#F1DB82"></rect><rect width="5.60737" height="0.203172" transform="matrix(0.957826 0.123218 -0.0530699 0.987711 21.1841 31.1147)" fill="#F1DB82"></rect><rect width="0.689089" height="1.66179" transform="matrix(0.965072 0.228356 -0.0166848 0.998487 33.1536 40.1284)" fill="#F1DB82"></rect><rect width="0.77394" height="4.03091" transform="matrix(0.964918 0.221758 -0.0194564 0.997716 33.5344 42.5391)" fill="#F1DB82"></rect><rect width="8.73086" height="0.154249" transform="matrix(0.955382 0.103736 -0.074433 0.980717 21.9443 49.6377)" fill="#F1DB82"></rect><rect width="0.754942" height="3.43699" transform="matrix(0.964969 0.223741 -0.0187214 0.997921 13.4785 39.0391)" fill="#F1DB82"></rect><path d="M15.6914 35.1144L15.6999 34.6349L16.3165 34.7723L16.325 34.2928L16.9416 34.4302L16.9501 33.9507L17.5667 34.0881L17.5752 33.6086L18.1918 33.746L18.2004 33.2665L19.4335 33.5413L19.4421 33.0618L20.6752 33.3366L20.6837 32.8571L26.233 34.0937L26.2244 34.5732L27.4576 34.848L27.4491 35.3275L28.0656 35.4649L28.0571 35.9444L29.2903 36.2192L29.2817 36.6987L29.8983 36.8361L29.8898 37.3156L30.5064 37.453L30.4978 37.9325L31.1144 38.0699L31.0973 39.0289L31.7139 39.1663L31.7054 39.6458L32.322 39.7832L32.3049 40.7422L32.9215 40.8796L32.9044 41.8386L33.521 41.976L33.4869 43.894L34.1035 44.0314L34.0181 48.8264L33.4015 48.689L33.393 49.1685L32.7764 49.0311L32.7679 49.5106L30.9182 49.0984L30.9096 49.5779L21.0444 47.3795L21.0529 46.9L18.5866 46.3504L18.5951 45.8709L16.7454 45.4587L16.7539 44.9792L16.1373 44.8418L16.1458 44.3623L15.5293 44.2249L15.5463 43.2659L14.9297 43.1285L14.9468 42.1695L14.3302 42.0321L14.3558 40.5936L13.7393 40.4562L13.799 37.0997L14.4156 37.2371L14.4497 35.3191L15.0663 35.4565L15.0748 34.977L15.6914 35.1144Z" fill="#F1DB82"></path><path d="M37.0573 35.482V34.8867H38.5454V36.3748L38.2478 36.9701L37.9502 37.2677L37.6525 39.351L37.3549 39.6486L37.0573 42.6248H36.7597V43.5177L36.4621 44.4106L36.1644 44.7082V45.3034L35.5692 46.1963H34.6764L34.3787 46.7915H33.1883V46.1963H31.9978L31.7002 45.601H31.4025L30.8073 45.3034L30.2121 45.0058L29.6168 44.4106H29.3192L29.0216 44.1129L28.724 43.8153L27.2359 43.5177L26.9383 43.2201L26.343 42.9225L26.0454 42.6248L24.8549 41.4344L24.2597 41.1367L23.9621 40.8391H23.3668V39.9463H20.9859V39.351V38.7558H21.2835L21.8787 38.4582V38.1606L21.5811 37.5653H20.093V37.2677L20.3906 36.6725L21.2835 36.3748L21.5811 36.0772L21.8787 35.482V35.1844H22.1764V34.8867L23.0692 34.5891L23.3668 34.2915H23.6644H23.9621L24.8549 34.5891L25.4502 35.1844L26.0454 35.7796L26.343 36.0772V36.3748H26.6406V36.6725L27.2359 36.9701L27.8311 37.8629L28.1287 38.1606L28.4264 38.4582L28.724 38.7558V39.0534L29.3192 39.6486L29.9144 40.5415L30.5097 41.1367L30.8073 41.4344L31.1049 42.0296L31.7002 42.6248L31.9978 42.9225L32.2954 43.2201H32.593L32.8906 44.1129L34.0811 43.8153L34.3787 43.2201L34.6764 42.6248L34.974 41.732L35.2716 41.4344L35.5692 39.0534L35.8668 38.7558L36.1644 37.5653V36.6725L36.7597 35.7796L37.0573 35.482Z" fill="#97AF08"></path><path fill-rule="evenodd" clip-rule="evenodd" d="M28.8175 14.081L28.8212 13.8815L28.8248 13.6819L30.0347 13.9182L31.2446 14.1545L31.241 14.3541L31.2374 14.5536L31.7213 14.6481L32.2053 14.7426L32.2017 14.9421L32.1981 15.1417L32.682 15.2362L33.166 15.3307L33.1624 15.5302L33.1587 15.7298L33.4007 15.777L33.6427 15.8243L33.6354 16.2233L33.6282 16.6224L33.8701 16.6697L34.1121 16.7169L34.094 17.7146L34.0758 18.7122L34.3178 18.7595L34.5598 18.8067L34.5562 19.0063L34.5525 19.2058L34.7945 19.253L35.0365 19.3003L35.0329 19.4998L35.0292 19.6994L35.2712 19.7466L35.5132 19.7939L35.5096 19.9934L35.5059 20.1929L35.7479 20.2402L35.9899 20.2874L35.9863 20.487L35.9826 20.6865L36.2246 20.7338L36.4666 20.781L36.463 20.9805L36.4593 21.1801L36.7013 21.2273L36.9433 21.2746L36.9397 21.4741L36.936 21.6737L37.178 21.7209L37.42 21.7682L37.4164 21.9677L37.4128 22.1672L37.6547 22.2145L37.8967 22.2617L37.8895 22.6608L37.8822 23.0599L38.1242 23.1071L38.3662 23.1544L38.3625 23.3539L38.3589 23.5534L38.6009 23.6007L38.8429 23.6479L38.8356 24.047L38.8283 24.4461L39.0703 24.4933L39.3123 24.5406L39.305 24.9396L39.2978 25.3387L39.5398 25.386L39.7818 25.4332L39.7709 26.0318L39.76 26.6304L40.002 26.6776L40.2439 26.7249L40.233 27.3235L40.2222 27.9221L39.9802 27.8748L39.7382 27.8276L39.7491 27.229L39.76 26.6304L39.518 26.5831L39.276 26.5359L39.2869 25.9373L39.2978 25.3387L39.0558 25.2914L38.8138 25.2442L38.8211 24.8451L38.8283 24.4461L38.5864 24.3988L38.3444 24.3515L38.3516 23.9525L38.3589 23.5534L38.1169 23.5062L37.8749 23.4589L37.8786 23.2594L37.8822 23.0599L37.6402 23.0126L37.3982 22.9653L37.4019 22.7658L37.4055 22.5663L37.1635 22.519L36.9215 22.4718L36.9288 22.0727L36.936 21.6737L36.6941 21.6264L36.4521 21.5791L36.4557 21.3796L36.4593 21.1801L36.2174 21.1328L35.9754 21.0856L35.979 20.886L35.9826 20.6865L35.7407 20.6392L35.4987 20.592L35.5023 20.3925L35.5059 20.1929L35.264 20.1457L35.022 20.0984L35.0256 19.8989L35.0292 19.6994L34.5453 19.6048L34.0613 19.5103L34.0577 19.7098L34.054 19.9094L33.8121 19.8621L33.5701 19.8149L33.5628 20.2139L33.5555 20.613L33.3136 20.5657L33.0716 20.5185L33.068 20.718L33.0643 20.9175L32.8223 20.8703L32.5804 20.823L32.5767 21.0225L32.5731 21.2221L32.3311 21.1748L32.0891 21.1275L32.0855 21.3271L32.0819 21.5266L31.8399 21.4793L31.5979 21.4321L31.5943 21.6316L31.5906 21.8311L31.1067 21.7366L30.6227 21.6421L30.6191 21.8416L30.6154 22.0412L29.8895 21.8994L29.1635 21.7576L29.1599 21.9571L29.1563 22.1567L28.1884 21.9676L27.2204 21.7786L27.224 21.5791L27.2277 21.3795L26.5017 21.2378L25.7758 21.096L25.7794 20.8965L25.783 20.6969L25.5411 20.6497L25.2991 20.6024L25.3027 20.4029L25.3063 20.2034L25.0644 20.1561L24.8224 20.1088L24.8296 19.7098L24.8369 19.3107L24.5949 19.2635L24.3529 19.2162L24.3747 18.019L24.3965 16.8219L24.6385 16.8691L24.8805 16.9164L24.895 16.1183L24.9095 15.3202L24.6675 15.2729L24.4255 15.2256L24.4328 14.8266L24.4401 14.4275L24.1981 14.3803L23.9561 14.333L23.9597 14.1335L23.9634 13.9339L23.4794 13.8394L22.9954 13.7449L22.9991 13.5454L23.0027 13.3459L21.5508 13.0623L20.0989 12.7788L20.0953 12.9783L20.0916 13.1778L20.3336 13.2251L20.5756 13.2723L20.572 13.4719L20.5683 13.6714L21.2943 13.8132L22.0202 13.9549L22.0166 14.1545L22.013 14.354L22.4969 14.4485L22.9809 14.543L22.9773 14.7426L22.9736 14.9421L23.2156 14.9893L23.4576 15.0366L23.454 15.2361L23.4504 15.4357L23.6923 15.4829L23.9343 15.5302L23.9307 15.7297L23.9271 15.9292L24.169 15.9765L24.411 16.0238L24.4074 16.2233L24.4038 16.4228L23.9198 16.3283L23.4358 16.2338L23.4322 16.4333L23.4286 16.6328L22.9446 16.5383L22.4606 16.4438L22.457 16.6433L22.4534 16.8429L21.9694 16.7483L21.4854 16.6538L21.4818 16.8533L21.4782 17.0529L20.9942 16.9584L20.5102 16.8638L20.5066 17.0634L20.503 17.2629L20.261 17.2156L20.019 17.1684L20.0154 17.3679L20.0118 17.5674L19.7698 17.5202L19.5278 17.4729L19.5242 17.6725L19.5205 17.872L19.2785 17.8247L19.0366 17.7775L19.0329 17.977L19.0293 18.1765L18.7873 18.1293L18.5453 18.082L18.5417 18.2815L18.5381 18.4811L18.2961 18.4338L18.0541 18.3865L18.0505 18.5861L18.0468 18.7856L17.8049 18.7383L17.5629 18.6911L17.5592 18.8906L17.5556 19.0901L17.3136 19.0429L17.0717 18.9956L17.068 19.1952L17.0644 19.3947L16.8224 19.3474L16.5804 19.3002L16.5732 19.6992L16.5659 20.0983L16.3239 20.051L16.0819 20.0038L16.0783 20.2033L16.0747 20.4028L15.8327 20.3556L15.5907 20.3083L15.5798 20.9069L15.5689 21.5055L15.3269 21.4582L15.085 21.411L15.045 23.6058L15.0051 25.8006L15.2471 25.8479L15.489 25.8951L15.4782 26.4937L15.4673 27.0923L15.7092 27.1395L15.9512 27.1868L15.944 27.5859L15.9367 27.9849L15.6947 27.9377L15.4527 27.8904L15.4455 28.2895L15.4382 28.6885L15.1962 28.6413L14.9542 28.594L14.9434 29.1926L14.9325 29.7912L14.6905 29.7439L14.4485 29.6966L14.4376 30.2952L14.4267 30.8938L14.1847 30.8466L13.9427 30.7993L13.9282 31.5974L13.9137 32.3955L13.6717 32.3483L13.4297 32.301L13.4079 33.4982L13.3862 34.6954L13.1442 34.6481L12.9022 34.6008L12.8695 36.3966L12.8368 38.1924L13.0788 38.2396L13.3208 38.2869L13.3027 39.2845L13.2845 40.2822L13.5265 40.3294L13.7685 40.3767L13.7576 40.9753L13.7467 41.5739L13.9887 41.6211L14.2306 41.6684L14.2234 42.0674L14.2161 42.4665L14.4581 42.5137L14.7001 42.561L14.6928 42.9601L14.6856 43.3591L14.9276 43.4064L15.1695 43.4536L15.1623 43.8527L15.155 44.2517L15.397 44.299L15.639 44.3463L15.6353 44.5458L15.6317 44.7453L15.3897 44.6981L15.1477 44.6508L15.1514 44.4513L15.155 44.2517L14.913 44.2045L14.671 44.1572L14.6783 43.7582L14.6856 43.3591L14.4436 43.3119L14.2016 43.2646L14.2052 43.0651L14.2089 42.8655L13.9669 42.8183L13.7249 42.771L13.7358 42.1724L13.7467 41.5739L13.5047 41.5266L13.2627 41.4793L13.27 41.0803L13.2772 40.6812L13.0353 40.634L12.7933 40.5867L12.8151 39.3895L12.8368 38.1924L12.5949 38.1451L12.3529 38.0978L12.3892 36.1026L12.4255 34.1073L12.6675 34.1545L12.9095 34.2018L12.924 33.4037L12.9385 32.6056L12.2126 32.4638L11.4866 32.322L11.4902 32.1225L11.4939 31.9229L10.7679 31.7812L10.042 31.6394L10.0456 31.4399L10.0492 31.2403L9.56526 31.1458L9.0813 31.0513L9.08493 30.8518L9.08856 30.6522L8.60459 30.5577L8.12063 30.4632L8.12789 30.0642L8.13515 29.6651L7.89317 29.6178L7.65118 29.5706L7.66208 28.972L7.67297 28.3734L7.43099 28.3262L7.189 28.2789L7.20716 27.2813L7.22531 26.2836L6.98333 26.2363L6.74135 26.1891L6.77765 24.1938L6.81396 22.1985L6.57198 22.1513L6.32999 22.104L6.34815 21.1064L6.3663 20.1087L6.60829 20.156L6.85027 20.2032L6.86479 19.4051L6.87932 18.607L7.1213 18.6543L7.36328 18.7015L7.34876 19.4996L7.33424 20.2977L7.09225 20.2505L6.85027 20.2032L6.83212 21.2009L6.81396 22.1985L7.05594 22.2458L7.29793 22.293L7.26162 24.2883L7.22531 26.2836L7.46729 26.3309L7.70928 26.3781L7.69112 27.3758L7.67297 28.3734L7.91495 28.4207L8.15694 28.4679L8.14604 29.0665L8.13515 29.6651L8.37713 29.7124L8.61912 29.7596L8.61549 29.9591L8.61186 30.1587L8.85384 30.2059L9.09582 30.2532L9.09219 30.4527L9.08856 30.6522L9.57253 30.7468L10.0565 30.8413L10.0529 31.0408L10.0492 31.2403L11.0172 31.4294L11.9851 31.6184L11.9815 31.8179L11.9778 32.0175L12.4618 32.112L12.9458 32.2065L12.9494 32.007L12.953 31.8074L13.195 31.8547L13.437 31.902L13.4515 31.1038L13.466 30.3057L13.708 30.353L13.95 30.4002L13.9536 30.2007L13.9573 30.0012L12.0214 29.6231L10.0855 29.2451L10.0819 29.4446L10.0783 29.6441L9.83629 29.5969L9.59431 29.5496L9.61247 28.5519L9.63062 27.5543L9.38864 27.507L9.14665 27.4598L9.18659 25.265L9.22653 23.0702L9.46851 23.1174L9.7105 23.1647L9.72139 22.5661L9.73228 21.9675L9.97426 22.0148L10.2162 22.062L10.2199 21.8625L10.2235 21.663L10.4655 21.7102L10.7075 21.7575L10.7111 21.558L10.7147 21.3584L10.9567 21.4057L11.1987 21.4529L11.206 21.0539L11.2132 20.6548L11.4552 20.7021L11.6972 20.7493L11.7081 20.1508L11.719 19.5522L11.477 19.5049L11.235 19.4577L11.2314 19.6572L11.2277 19.8567L10.9858 19.8095L10.7438 19.7622L10.7402 19.9617L10.7365 20.1613L10.4945 20.114L10.2526 20.0667L10.2489 20.2663L10.2453 20.4658L10.0033 20.4185L9.76133 20.3713L9.7577 20.5708L9.75407 20.7703L9.2701 20.6758L8.78613 20.5813L8.78976 20.3818L8.7934 20.1822L9.03538 20.2295L9.27736 20.2768L9.28099 20.0772L9.28462 19.8777L9.52661 19.925L9.76859 19.9722L9.77222 19.7727L9.77585 19.5732L10.0178 19.6204L10.2598 19.6677L10.2634 19.4681L10.2671 19.2686L10.5091 19.3159L10.751 19.3631L10.7547 19.1636L10.7583 18.9641L11.0003 19.0113L11.2423 19.0586L11.2677 17.6619L11.2931 16.2652L11.5351 16.3125L11.7771 16.3597L11.7807 16.1602L11.7843 15.9607L12.0263 16.0079L12.2683 16.0552L12.2719 15.8556L12.2756 15.6561L12.5175 15.7034L12.7595 15.7506L12.7632 15.5511L12.7668 15.3516L13.0088 15.3988L13.2508 15.4461L13.258 15.047L13.2653 14.648L13.5073 14.6952L13.7492 14.7425L13.7674 13.7448L13.7856 12.7472L13.3016 12.6527L12.8176 12.5582L12.814 12.7577L12.8104 12.9572L12.5684 12.91L12.3264 12.8627L12.3228 13.0622L12.3191 13.2618L12.0771 13.2145L11.8352 13.1673L11.8424 12.7682L11.8497 12.3691L12.0917 12.4164L12.3337 12.4637L12.3373 12.2641L12.3409 12.0646L12.5829 12.1119L12.8249 12.1591L12.8285 11.9596L12.8321 11.7601L13.3161 11.8546L13.8001 11.9491L13.7964 12.1486L13.7928 12.3481L14.0348 12.3954L14.2768 12.4427L14.2623 13.2408L14.2477 14.0389L14.4897 14.0862L14.7317 14.1334L14.7281 14.3329L14.7244 14.5325L14.9664 14.5797L15.2084 14.627L15.2011 15.026L15.1939 15.4251L14.9519 15.3778L14.7099 15.3306L14.7063 15.5301L14.7027 15.7296L14.9446 15.7769L15.1866 15.8242L15.1757 16.4227L15.1648 17.0213L14.9229 16.9741L14.6809 16.9268L14.6736 17.3259L14.6663 17.7249L14.4244 17.6777L14.1824 17.6304L14.1787 17.8299L14.1751 18.0295L13.6911 17.935L13.2072 17.8404L13.2036 18.04L13.1999 18.2395L12.716 18.145L12.232 18.0505L12.2066 19.4472L12.1812 20.8439L11.9392 20.7966L11.6972 20.7493L11.6899 21.1484L11.6827 21.5475L11.4407 21.5002L11.1987 21.4529L11.1951 21.6525L11.1914 21.852L10.9495 21.8047L10.7075 21.7575L10.7002 22.1565L10.693 22.5556L10.451 22.5083L10.209 22.4611L10.1981 23.0597L10.1872 23.6583L9.94522 23.611L9.70323 23.5637L9.66693 25.559L9.63062 27.5543L9.8726 27.6016L10.1146 27.6488L10.1037 28.2474L10.0928 28.846L12.0287 29.2241L13.9645 29.6021L13.9682 29.4026L13.9718 29.2031L14.2138 29.2503L14.4558 29.2976L14.463 28.8985L14.4703 28.4995L14.7123 28.5467L14.9542 28.594L14.9615 28.1949L14.9688 27.7959L15.2108 27.8431L15.4527 27.8904L15.46 27.4913L15.4673 27.0923L15.2253 27.045L14.9833 26.9978L14.9942 26.3992L15.0051 25.8006L14.7631 25.7533L14.5211 25.7061L14.5611 23.5113L14.601 21.3164L14.843 21.3637L15.085 21.411L15.0958 20.8124L15.1067 20.2138L15.3487 20.261L15.5907 20.3083L15.5943 20.1088L15.598 19.9092L15.84 19.9565L16.0819 20.0038L16.0892 19.6047L16.0965 19.2057L16.3384 19.2529L16.5804 19.3002L16.5841 19.1006L16.5877 18.9011L16.8297 18.9484L17.0717 18.9956L17.0789 18.5966L17.0862 18.1975L16.8442 18.1503L16.6022 18.103L16.6095 17.7039L16.6167 17.3049L16.3747 17.2576L16.1328 17.2104L16.1509 16.2127L16.1691 15.2151L16.4111 15.2623L16.653 15.3096L16.6639 14.711L16.6748 14.1124L16.9168 14.1597L17.1588 14.2069L17.1624 14.0074L17.1661 13.8079L17.408 13.8551L17.65 13.9024L17.6536 13.7029L17.6573 13.5033L17.8993 13.5506L18.1412 13.5979L18.1485 13.1988L18.1558 12.7997L18.6397 12.8943L19.1237 12.9888L19.1273 12.7892L19.131 12.5897L19.6149 12.6842L20.0989 12.7788L20.1025 12.5792L20.1062 12.3797L21.5581 12.6632L23.01 12.9468L23.0063 13.1463L23.0027 13.3459L23.4867 13.4404L23.9706 13.5349L23.967 13.7344L23.9634 13.9339L24.2053 13.9812L24.4473 14.0285L24.4437 14.228L24.4401 14.4275L24.6821 14.4748L24.924 14.522L24.9168 14.9211L24.9095 15.3202L25.1515 15.3674L25.3935 15.4147L25.3971 15.2151L25.4007 15.0156L25.6427 15.0629L25.8847 15.1101L25.8883 14.9106L25.892 14.7111L26.1339 14.7583L26.3759 14.8056L26.3796 14.6061L26.3832 14.4065L26.6252 14.4538L26.8672 14.5011L26.8708 14.3015L26.8744 14.102L27.1164 14.1493L27.3584 14.1965L27.362 13.997L27.3656 13.7975L28.0916 13.9392L28.8175 14.081ZM28.8175 14.081L28.8139 14.2805L28.8103 14.4801L28.3263 14.3855L27.8424 14.291L27.8387 14.4906L27.8351 14.6901L27.3511 14.5956L26.8672 14.5011L26.8635 14.7006L26.8599 14.9001L28.5538 15.2309L30.2477 15.5617L30.244 15.7613L30.2404 15.9608L28.5465 15.63L26.8526 15.2992L26.849 15.4987L26.8454 15.6982L26.3614 15.6037L25.8774 15.5092L25.8738 15.7087L25.8702 15.9082L25.6282 15.861L25.3862 15.8137L25.3753 16.4123L25.3644 17.0109L25.1224 16.9636L24.8805 16.9164L24.8623 17.914L24.8442 18.9117L25.0861 18.9589L25.3281 19.0062L25.3209 19.4052L25.3136 19.8043L25.5556 19.8516L25.7976 19.8988L25.7939 20.0983L25.7903 20.2979L26.0323 20.3451L26.2743 20.3924L26.2706 20.5919L26.267 20.7914L26.993 20.9332L27.7189 21.075L27.7153 21.2745L27.7116 21.4741L28.1956 21.5686L28.6796 21.6631L28.6832 21.4636L28.6868 21.264L29.4128 21.4058L30.1387 21.5476L30.1424 21.3481L30.146 21.1485L30.63 21.243L31.1139 21.3376L31.1176 21.138L31.1212 20.9385L31.6052 21.033L32.0891 21.1275L32.0928 20.928L32.0964 20.7285L32.3384 20.7757L32.5804 20.823L32.5876 20.4239L32.5949 20.0249L32.8369 20.0721L33.0788 20.1194L33.0825 19.9199L33.0861 19.7203L33.3281 19.7676L33.5701 19.8149L33.5773 19.4158L33.5846 19.0167L33.3426 18.9695L33.1006 18.9222L33.1079 18.5232L33.1152 18.1242L32.8732 18.077L32.6312 18.0297L32.6348 17.8302L32.6385 17.6306L32.1545 17.5361L31.6705 17.4416L31.6742 17.2421L31.6778 17.0426L31.4358 16.9953L31.1938 16.948L31.1975 16.7485L31.2011 16.549L30.7171 16.4545L30.2332 16.3599L30.2368 16.1604L30.2404 15.9609L30.7244 16.0554L31.2084 16.1499L31.2047 16.3495L31.2011 16.549L31.6851 16.6435L32.169 16.738L32.1654 16.9375L32.1618 17.1371L32.4037 17.1843L32.6457 17.2316L32.6421 17.4311L32.6385 17.6306L32.8804 17.6779L33.1224 17.7252L33.1188 17.9247L33.1152 18.1241L33.3571 18.1714L33.5991 18.2186L33.6136 17.4205L33.6282 16.6224L33.3862 16.5751L33.1442 16.5279L33.1478 16.3284L33.1515 16.1288L32.9095 16.0816L32.6675 16.0343L32.6711 15.8348L32.6748 15.6353L32.4328 15.588L32.1908 15.5407L32.1944 15.3412L32.1981 15.1417L31.7141 15.0472L31.2301 14.9526L31.2337 14.7531L31.2374 14.5536L30.0275 14.3173L28.8175 14.081ZM16.6167 17.3049L16.6313 16.5068L16.6458 15.7087L16.8878 15.7559L17.1297 15.8032L17.1261 16.0027L17.1225 16.2022L17.3645 16.2495L17.6064 16.2967L17.6028 16.4963L17.5992 16.6958L18.5671 16.8848L19.5351 17.0739L19.5314 17.2734L19.5278 17.4729L19.0438 17.3784L18.5599 17.2839L18.5562 17.4834L18.5526 17.6829L18.3106 17.6357L18.0686 17.5884L18.065 17.788L18.0614 17.9875L17.8194 17.9402L17.5774 17.893L17.5738 18.0925L17.5701 18.292L17.3282 18.2448L17.0862 18.1975L17.0934 17.7985L17.1007 17.3994L16.8587 17.3521L16.6167 17.3049ZM14.1969 16.8323L14.4389 16.8796L14.6809 16.9268L14.6845 16.7273L14.6881 16.5278L14.4461 16.4805L14.2042 16.4332L14.2005 16.6328L14.1969 16.8323ZM13.7057 17.1368L13.9477 17.1841L14.1896 17.2314L14.1933 17.0318L14.1969 16.8323L13.9549 16.785L13.7129 16.7378L13.7093 16.9373L13.7057 17.1368ZM12.7305 17.3469L13.2144 17.4414L13.6984 17.5359L13.702 17.3364L13.7057 17.1368L13.2217 17.0423L12.7377 16.9478L12.7341 17.1473L12.7305 17.3469ZM12.7305 17.3469L12.4885 17.2996L12.2465 17.2523L12.2429 17.4519L12.2393 17.6514L12.4812 17.6987L12.7232 17.7459L12.7268 17.5464L12.7305 17.3469ZM13.2362 16.2442L13.4782 16.2915L13.7202 16.3387L13.7238 16.1392L13.7275 15.9397L13.9694 15.9869L14.2114 16.0342L14.2187 15.6351L14.2259 15.2361L14.4679 15.2833L14.7099 15.3306L14.7135 15.1311L14.7172 14.9315L14.2332 14.837L13.7492 14.7425L13.742 15.1416L13.7347 15.5406L13.4927 15.4933L13.2508 15.4461L13.2435 15.8451L13.2362 16.2442ZM13.2362 16.2442L12.9942 16.1969L12.7523 16.1497L12.7486 16.3492L12.745 16.5487L12.987 16.596L13.229 16.6433L13.2326 16.4437L13.2362 16.2442ZM20.0771 13.9759L20.0626 14.774L20.0481 15.5722L20.532 15.6667L21.016 15.7612L21.0124 15.9607L21.0087 16.1602L20.7668 16.113L20.5248 16.0657L20.5211 16.2653L20.5175 16.4648L21.0015 16.5593L21.4854 16.6538L21.4891 16.4543L21.4927 16.2548L21.7347 16.302L21.9767 16.3493L21.9803 16.1498L21.9839 15.9502L22.4679 16.0447L22.9519 16.1393L22.9591 15.7402L22.9664 15.3411L22.7244 15.2939L22.4824 15.2466L22.486 15.0471L22.4897 14.8476L22.2477 14.8003L22.0057 14.7531L22.0093 14.5535L22.013 14.354L21.045 14.165L20.0771 13.9759ZM20.0771 13.9759L20.0807 13.7764L20.0844 13.5769L19.8424 13.5296L19.6004 13.4824L19.5968 13.6819L19.5931 13.8814L19.8351 13.9287L20.0771 13.9759ZM23.5266 11.2456L23.523 11.4451L22.797 11.3034L22.0711 11.1616L22.0638 11.5607L22.0565 11.9597L23.0245 12.1487L23.9924 12.3378L23.9888 12.5373L23.9851 12.7368L24.4691 12.8314L24.9531 12.9259L24.9494 13.1254L24.9458 13.3249L25.1878 13.3722L25.4298 13.4194L25.4407 12.8209L25.4516 12.2223L25.2096 12.175L24.9676 12.1278L24.9712 11.9282L24.9749 11.7287L24.4909 11.6342L24.0069 11.5397L24.0106 11.3401L24.0142 11.1406L23.7722 11.0933L23.5302 11.0461L23.5266 11.2456ZM30.7861 12.6634L30.7825 12.8629L30.5405 12.8157L30.2985 12.7684L30.2949 12.9679L30.2913 13.1674L31.0172 13.3092L31.7431 13.451L31.7395 13.6505L31.7359 13.8501L32.4618 13.9918L33.1878 14.1336L33.1842 14.3331L33.1805 14.5327L33.4225 14.5799L33.6645 14.6272L33.6609 14.8267L33.6572 15.0262L33.8992 15.0735L34.1412 15.1208L34.1521 14.5222L34.163 13.9236L33.921 13.8763L33.679 13.8291L33.6826 13.6295L33.6863 13.43L33.4443 13.3828L33.2023 13.3355L33.2059 13.136L33.2096 12.9364L31.9997 12.7001L30.7897 12.4639L30.7861 12.6634ZM26.8381 16.0973L26.8418 15.8978L26.8454 15.6983L28.2973 15.9818L29.7492 16.2654L29.7456 16.4649L29.7419 16.6644L29.9839 16.7117L30.2259 16.7589L30.2223 16.9585L30.2186 17.158L29.9766 17.1107L29.7347 17.0635L29.731 17.263L29.7274 17.4625L29.4854 17.4153L29.2434 17.368L29.2398 17.5675L29.2362 17.7671L29.9621 17.9088L30.6881 18.0506L30.6844 18.2502L30.6808 18.4497L30.4388 18.4024L30.1968 18.3552L30.1896 18.7542L30.1823 19.1533L29.9403 19.106L29.6984 19.0588L29.6947 19.2583L29.6911 19.4578L29.4491 19.4106L29.2071 19.3633L29.2035 19.5628L29.1999 19.7624L28.2319 19.5733L27.264 19.3843L27.2676 19.1848L27.2713 18.9852L26.7873 18.8907L26.3033 18.7962L26.3106 18.3971L26.3179 17.9981L26.0759 17.9508L25.8339 17.9036L25.8448 17.305L25.8557 16.7064L26.0977 16.7537L26.3396 16.8009L26.3469 16.4019L26.3542 16.0028L26.5961 16.0501L26.8381 16.0973ZM11.3403 13.6713L11.3367 13.8708L11.5787 13.9181L11.8206 13.9653L11.8243 13.7658L11.8279 13.5663L11.5859 13.519L11.3439 13.4717L11.3403 13.6713ZM10.8382 14.5744L11.0802 14.6217L11.3222 14.6689L11.3294 14.2699L11.3367 13.8708L11.0947 13.8235L10.8527 13.7763L10.8455 14.1753L10.8382 14.5744ZM10.347 14.8789L10.5889 14.9262L10.8309 14.9735L10.8346 14.7739L10.8382 14.5744L10.5962 14.5271L10.3542 14.4799L10.3506 14.6794L10.347 14.8789ZM9.85574 15.1835L10.0977 15.2307L10.3397 15.278L10.3433 15.0785L10.347 14.8789L10.105 14.8317L9.863 14.7844L9.85937 14.984L9.85574 15.1835ZM9.36451 15.488L9.60649 15.5353L9.84848 15.5825L9.85211 15.383L9.85574 15.1835L9.61375 15.1362L9.37177 15.089L9.36814 15.2885L9.36451 15.488ZM8.87328 15.7926L9.11527 15.8398L9.35725 15.8871L9.36088 15.6876L9.36451 15.488L9.12253 15.4408L8.88054 15.3935L8.87691 15.593L8.87328 15.7926ZM8.37479 16.4962L8.61678 16.5434L8.85876 16.5907L8.86602 16.1916L8.87328 15.7926L8.6313 15.7453L8.38932 15.698L8.38206 16.0971L8.37479 16.4962ZM7.8763 17.1998L8.11829 17.247L8.36027 17.2943L8.36753 16.8952L8.37479 16.4962L8.13281 16.4489L7.89083 16.4016L7.88357 16.8007L7.8763 17.1998ZM7.8763 17.1998L7.63432 17.1525L7.39234 17.1052L7.38145 17.7038L7.37055 18.3024L7.61254 18.3497L7.85452 18.3969L7.86541 17.7983L7.8763 17.1998ZM19.9755 19.5627L19.9827 19.1636L19.99 18.7646L20.9579 18.9536L21.9258 19.1426L21.9077 20.1403L21.8895 21.1379L21.6476 21.0907L21.4056 21.0434L21.4019 21.2429L21.3983 21.4425L20.4304 21.2534L19.4624 21.0644L19.477 20.2663L19.4915 19.4682L19.7335 19.5154L19.9755 19.5627ZM18.9676 21.5685L18.964 21.7681L19.2059 21.8153L19.4479 21.8626L19.4515 21.6631L19.4552 21.4635L19.2132 21.4163L18.9712 21.369L18.9676 21.5685ZM19.4479 21.8626L19.4443 22.0621L19.4407 22.2616L20.1666 22.4034L20.8926 22.5452L20.8962 22.3457L20.8998 22.1461L20.1739 22.0044L19.4479 21.8626ZM40.1713 30.7155L40.1931 29.5183L40.2149 28.3211L40.4569 28.3684L40.6989 28.4157L40.6771 29.6128L40.6553 30.81L40.4133 30.7627L40.1713 30.7155ZM39.6656 31.8181L39.6765 31.2195L39.6874 30.621L39.9294 30.6682L40.1713 30.7155L40.1604 31.3141L40.1496 31.9126L39.9076 31.8654L39.6656 31.8181ZM39.1671 32.5217L39.1744 32.1227L39.1816 31.7236L39.4236 31.7709L39.6656 31.8181L39.662 32.0177L39.6583 32.2172L39.9003 32.2644L40.1423 32.3117L40.135 32.7108L40.1278 33.1098L40.3697 33.1571L40.6117 33.2043L40.6045 33.6034L40.5972 34.0025L40.8392 34.0497L41.0812 34.097L41.0739 34.496L41.0667 34.8951L41.3086 34.9423L41.5506 34.9896L41.5434 35.3887L41.5361 35.7877L41.7781 35.835L42.0201 35.8822L42.0128 36.2813L42.0055 36.6803L41.7636 36.6331L41.5216 36.5858L41.5288 36.1868L41.5361 35.7877L41.2941 35.7405L41.0521 35.6932L41.0594 35.2941L41.0667 34.8951L40.8247 34.8478L40.5827 34.8006L40.5899 34.4015L40.5972 34.0025L40.3552 33.9552L40.1132 33.9079L40.1205 33.5089L40.1278 33.1098L39.8858 33.0626L39.6438 33.0153L39.6474 32.8158L39.6511 32.6162L39.4091 32.569L39.1671 32.5217ZM39.1671 32.5217L39.1598 32.9208L39.1526 33.3198L38.9106 33.2726L38.6686 33.2253L38.6759 32.8263L38.6831 32.4272L38.9251 32.4745L39.1671 32.5217ZM23.6112 33.2883L23.6075 33.4878L23.8495 33.5351L24.0915 33.5823L24.0879 33.7819L24.0843 33.9814L24.8102 34.1232L25.5362 34.265L25.5398 34.0654L25.5434 33.8659L25.0594 33.7714L24.5755 33.6769L24.5791 33.4773L24.5827 33.2778L24.0988 33.1833L23.6148 33.0888L23.6112 33.2883ZM26.0129 34.7585L26.0165 34.559L26.0201 34.3595L25.7781 34.3122L25.5362 34.265L25.5325 34.4645L25.5289 34.664L25.7709 34.7113L26.0129 34.7585ZM26.4896 35.2521L26.4932 35.0526L26.4968 34.853L26.2548 34.8058L26.0129 34.7585L26.0092 34.9581L26.0056 35.1576L26.2476 35.2048L26.4896 35.2521ZM26.9663 35.7457L26.9699 35.5461L26.9735 35.3466L26.7315 35.2994L26.4896 35.2521L26.4859 35.4516L26.4823 35.6512L26.7243 35.6984L26.9663 35.7457ZM27.443 36.2392L27.4466 36.0397L27.4502 35.8402L27.2082 35.7929L26.9663 35.7457L26.9626 35.9452L26.959 36.1447L27.201 36.192L27.443 36.2392ZM27.9197 36.7328L27.9233 36.5333L27.9269 36.3338L27.685 36.2865L27.443 36.2392L27.4393 36.4388L27.4357 36.6383L27.6777 36.6856L27.9197 36.7328ZM28.3964 37.2264L28.4 37.0269L28.4036 36.8273L28.1617 36.7801L27.9197 36.7328L27.916 36.9324L27.9124 37.1319L28.1544 37.1791L28.3964 37.2264ZM28.8731 37.72L28.8767 37.5204L28.8803 37.3209L28.6384 37.2737L28.3964 37.2264L28.3927 37.4259L28.3891 37.6255L28.6311 37.6727L28.8731 37.72ZM29.3498 38.2135L29.3534 38.014L29.3571 37.8145L29.1151 37.7672L28.8731 37.72L28.8695 37.9195L28.8658 38.119L29.1078 38.1663L29.3498 38.2135ZM31.2493 40.5869L31.2566 40.1878L31.2639 39.7888L31.0219 39.7415L30.7799 39.6943L30.7835 39.4947L30.7872 39.2952L30.5452 39.248L30.3032 39.2007L30.3068 39.0012L30.3105 38.8016L30.0685 38.7544L29.8265 38.7071L29.8301 38.5076L29.8338 38.3081L29.5918 38.2608L29.3498 38.2135L29.3425 38.6126L29.3353 39.0117L29.5772 39.0589L29.8192 39.1062L29.8156 39.3057L29.812 39.5052L30.054 39.5525L30.2959 39.5998L30.2923 39.7993L30.2887 39.9988L30.5307 40.0461L30.7726 40.0933L30.769 40.2929L30.7654 40.4924L31.0074 40.5396L31.2493 40.5869ZM31.726 41.0805L31.7297 40.8809L31.7333 40.6814L31.4913 40.6342L31.2493 40.5869L31.2457 40.7864L31.2421 40.986L31.4841 41.0332L31.726 41.0805ZM32.2028 41.574L32.2064 41.3745L32.21 41.175L31.968 41.1277L31.726 41.0805L31.7224 41.28L31.7188 41.4795L31.9608 41.5268L32.2028 41.574ZM32.6795 42.0676L32.6831 41.8681L32.6867 41.6686L32.4447 41.6213L32.2028 41.574L32.1991 41.7736L32.1955 41.9731L32.4375 42.0204L32.6795 42.0676ZM33.1562 42.5612L33.1598 42.3617L33.1634 42.1621L32.9214 42.1149L32.6795 42.0676L32.6758 42.2672L32.6722 42.4667L32.9142 42.5139L33.1562 42.5612ZM33.6329 43.0548L33.6365 42.8552L33.6401 42.6557L33.3981 42.6085L33.1562 42.5612L33.1525 42.7607L33.1489 42.9603L33.3909 43.0075L33.6329 43.0548ZM35.5833 42.6347L35.3413 42.5875L35.0993 42.5402L35.0957 42.7397L35.092 42.9393L34.85 42.892L34.6081 42.8447L34.6044 43.0443L34.6008 43.2438L34.1168 43.1493L33.6329 43.0548L33.6292 43.2543L33.6256 43.4538L34.1096 43.5483L34.5935 43.6429L34.5899 43.8424L34.5863 44.0419L34.8283 44.0892L35.0702 44.1364L35.0739 43.9369L35.0775 43.7374L35.5615 43.8319L36.0454 43.9264L36.0491 43.7269L36.0527 43.5274L35.8107 43.4801L35.5687 43.4328L35.576 43.0338L35.5833 42.6347ZM36.089 41.5321L35.847 41.4848L35.605 41.4376L35.5941 42.0361L35.5833 42.6347L35.8252 42.682L36.0672 42.7292L36.0781 42.1307L36.089 41.5321ZM36.6165 39.2322L36.3746 39.185L36.1326 39.1377L36.1108 40.3349L36.089 41.5321L36.331 41.5793L36.573 41.6266L36.5948 40.4294L36.6165 39.2322ZM37.6353 36.6279L37.3933 36.5806L37.1513 36.5334L37.1441 36.9324L37.1368 37.3315L36.8948 37.2842L36.6529 37.237L36.6347 38.2346L36.6165 39.2322L36.8585 39.2795L37.1005 39.3268L37.115 38.5286L37.1296 37.7305L37.3715 37.7778L37.6135 37.825L37.6244 37.2265L37.6353 36.6279ZM37.6353 36.6279L37.8773 36.6751L38.1193 36.7224L38.1265 36.3233L38.1338 35.9243L37.8918 35.877L37.6498 35.8298L37.6426 36.2288L37.6353 36.6279ZM22.6324 33.6978L23.1163 33.7924L23.6003 33.8869L23.6039 33.6874L23.6075 33.4878L23.1236 33.3933L22.6396 33.2988L22.636 33.4983L22.6324 33.6978ZM22.1411 34.0024L22.1448 33.8029L22.1484 33.6033L22.3904 33.6506L22.6324 33.6978L22.6287 33.8974L22.6251 34.0969L23.351 34.2387L24.077 34.3805L24.0734 34.58L24.0697 34.7795L24.5537 34.874L25.0377 34.9685L25.034 35.1681L25.0304 35.3676L25.2724 35.4149L25.5144 35.4621L25.5107 35.6617L25.5071 35.8612L25.0231 35.7667L24.5392 35.6721L24.5428 35.4726L24.5464 35.2731L23.0945 34.9895L21.6426 34.706L21.639 34.9055L21.6354 35.105L21.3934 35.0578L21.1514 35.0105L21.1478 35.2101L21.1441 35.4096L20.9022 35.3623L20.6602 35.3151L20.6566 35.5146L20.6529 35.7141L21.3789 35.8559L22.1048 35.9977L22.1084 35.7981L22.1121 35.5986L23.08 35.7877L24.0479 35.9767L24.0443 36.1762L24.0407 36.3757L24.2827 36.423L24.5247 36.4703L24.521 36.6698L24.5174 36.8693L24.7594 36.9166L25.0014 36.9638L24.9941 37.3629L24.9868 37.7619L24.0189 37.5729L23.051 37.3839L23.0546 37.1844L23.0582 36.9848L22.8162 36.9376L22.5743 36.8903L22.5706 37.0898L22.567 37.2894L22.083 37.1948L21.5991 37.1003L21.5918 37.4994L21.5845 37.8984L22.7945 38.1347L24.0044 38.371L24.0007 38.5706L23.9971 38.7701L24.2391 38.8173L24.4811 38.8646L24.4775 39.0641L24.4738 39.2637L24.9578 39.3582L25.4418 39.4527L25.4381 39.6522L25.4345 39.8518L25.6765 39.899L25.9185 39.9463L25.9148 40.1458L25.9112 40.3453L26.1532 40.3926L26.3952 40.4398L26.3915 40.6394L26.3879 40.8389L26.6299 40.8862L26.8719 40.9334L26.8682 41.1329L26.8646 41.3325L27.3486 41.427L27.8325 41.5215L27.8289 41.721L27.8253 41.9206L29.5192 42.2514L31.213 42.5822L31.2094 42.7817L31.2058 42.9812L30.7218 42.8867L30.2378 42.7922L30.2342 42.9917L30.2306 43.1913L30.7145 43.2858L31.1985 43.3803L31.1949 43.5798L31.1913 43.7794L31.6752 43.8739L32.1592 43.9684L32.1556 44.1679L32.1519 44.3675L32.6359 44.462L33.1199 44.5565L33.1162 44.756L33.1126 44.9555L33.8385 45.0973L34.5645 45.2391L34.5609 45.4386L34.5572 45.6382L35.0412 45.7327L35.5252 45.8272L35.5288 45.6277L35.5324 45.4281L36.0164 45.5226L36.5004 45.6172L36.504 45.4176L36.5076 45.2181L36.7496 45.2654L36.9916 45.3126L37.0025 44.714L37.0134 44.1154L37.2554 44.1627L37.4973 44.21L37.5119 43.4119L37.5264 42.6137L37.7684 42.661L38.0103 42.7083L38.0358 41.3116L38.0612 39.9149L38.3032 39.9621L38.5451 40.0094L38.5633 39.0117L38.5815 38.0141L38.8234 38.0613L39.0654 38.1086L39.0727 37.7095L39.0799 37.3105L39.3219 37.3577L39.5639 37.405L39.553 38.0036L39.5421 38.6022L39.3001 38.5549L39.0582 38.5077L39.04 39.5053L39.0218 40.5029L38.7799 40.4557L38.5379 40.4084L38.5125 41.8051L38.4871 43.2018L38.2451 43.1546L38.0031 43.1073L37.9886 43.9054L37.974 44.7035L37.7321 44.6563L37.4901 44.609L37.4828 45.0081L37.4755 45.4071L37.2336 45.3599L36.9916 45.3126L36.9843 45.7117L36.9771 46.1107L36.4931 46.0162L36.0091 45.9217L36.0055 46.1212L36.0019 46.3208L35.0339 46.1317L34.066 45.9427L34.0696 45.7432L34.0733 45.5436L33.3473 45.4019L32.6214 45.2601L32.625 45.0606L32.6286 44.861L32.1447 44.7665L31.6607 44.672L31.6643 44.4725L31.668 44.2729L31.184 44.1784L30.7 44.0839L30.7037 43.8844L30.7073 43.6848L30.4653 43.6376L30.2233 43.5903L30.227 43.3908L30.2306 43.1913L29.7466 43.0968L29.2626 43.0022L29.2663 42.8027L29.2699 42.6032L28.544 42.4614L27.818 42.3196L27.8216 42.1201L27.8253 41.9206L27.3413 41.8261L26.8573 41.7315L26.861 41.532L26.8646 41.3325L26.3806 41.238L25.8967 41.1434L25.9003 40.9439L25.9039 40.7444L25.6619 40.6971L25.42 40.6499L25.4236 40.4503L25.4272 40.2508L25.1852 40.2036L24.9433 40.1563L24.9469 39.9568L24.9505 39.7572L24.7085 39.71L24.4666 39.6627L24.4702 39.4632L24.4738 39.2637L23.9899 39.1691L23.5059 39.0746L23.5095 38.8751L23.5131 38.6756L22.3032 38.4393L21.0933 38.203L21.0969 38.0035L21.1006 37.8039L20.8586 37.7567L20.6166 37.7094L20.6239 37.3104L20.6311 36.9113L20.8731 36.9586L21.1151 37.0058L21.1187 36.8063L21.1224 36.6068L21.6063 36.7013L22.0903 36.7958L22.0939 36.5963L22.0976 36.3967L20.8876 36.1604L19.6777 35.9241L19.685 35.5251L19.6923 35.126L19.9342 35.1733L20.1762 35.2206L20.1798 35.021L20.1835 34.8215L20.4255 34.8688L20.6674 34.916L20.6711 34.7165L20.6747 34.517L21.1587 34.6115L21.6426 34.706L21.6499 34.3069L21.6572 33.9079L21.8991 33.9551L22.1411 34.0024ZM23.5495 36.6803L23.5458 36.8798L23.5422 37.0793L24.0262 37.1739L24.5101 37.2684L24.5138 37.0688L24.5174 36.8693L24.0334 36.7748L23.5495 36.6803ZM23.5495 36.6803L22.8235 36.5385L22.0976 36.3967L22.1012 36.1972L22.1048 35.9977L22.8308 36.1395L23.5567 36.2812L23.5531 36.4808L23.5495 36.6803ZM22.1411 34.0024L22.1375 34.2019L22.1339 34.4014L22.3758 34.4487L22.6178 34.496L22.6215 34.2964L22.6251 34.0969L22.3831 34.0496L22.1411 34.0024ZM41.9765 38.2766L41.9874 37.678L41.9983 37.0794L42.2402 37.1267L42.4822 37.1739L42.4713 37.7725L42.4604 38.3711L42.7024 38.4183L42.9444 38.4656L42.9299 39.2637L42.9154 40.0618L43.1573 40.1091L43.3993 40.1564L43.3449 43.1493L43.2904 46.1422L43.0484 46.095L42.8064 46.0477L42.7955 46.6463L42.7846 47.2449L42.5427 47.1976L42.3007 47.1504L42.2898 47.7489L42.2789 48.3475L42.0369 48.3003L41.7949 48.253L41.7913 48.4525L41.7877 48.6521L41.5457 48.6048L41.3037 48.5575L41.2964 48.9566L41.2892 49.3557L41.0472 49.3084L40.8052 49.2611L40.8016 49.4607L40.798 49.6602L40.556 49.6129L40.314 49.5657L40.3176 49.3662L40.3212 49.1666L40.5632 49.2139L40.8052 49.2611L40.8125 48.8621L40.8197 48.463L41.0617 48.5103L41.3037 48.5575L41.311 48.1585L41.3182 47.7594L41.5602 47.8067L41.8022 47.854L41.8095 47.4549L41.8167 47.0558L42.0587 47.1031L42.3007 47.1504L42.3116 46.5518L42.3225 45.9532L42.5645 46.0004L42.8064 46.0477L42.8609 43.0548L42.9154 40.0618L42.6734 40.0146L42.4314 39.9673L42.4459 39.1692L42.4604 38.3711L42.2185 38.3238L41.9765 38.2766Z" fill="black"></path></g></svg>